<svg width="32" height="32" viewBox="0 0 32 32" fill="none" xmlns="http://www.w3.org/2000/svg">
  <rect width="32" height="32" rx="8" fill="url(#gradient)"/>
  <!-- Link chain icon -->
  <path d="M13 11a4 4 0 0 1 4-4h2a4 4 0 0 1 4 4v2a4 4 0 0 1-4 4h-1" stroke="white" stroke-width="2" stroke-linecap="round" fill="none"/>
  <path d="M19 21a4 4 0 0 1-4 4h-2a4 4 0 0 1-4-4v-2a4 4 0 0 1 4-4h1" stroke="white" stroke-width="2" stroke-linecap="round" fill="none"/>
  <!-- QR code dots -->
  <circle cx="9" cy="9" r="1" fill="white"/>
  <circle cx="11" cy="9" r="1" fill="white"/>
  <circle cx="9" cy="11" r="1" fill="white"/>
  <circle cx="23" cy="23" r="1" fill="white"/>
  <circle cx="25" cy="23" r="1" fill="white"/>
  <circle cx="23" cy="25" r="1" fill="white"/>
  <defs>
    <linearGradient id="gradient" x1="0" y1="0" x2="32" y2="32">
      <stop stop-color="#8B5CF6"/>
      <stop offset="1" stop-color="#A855F7"/>
    </linearGradient>
  </defs>
</svg>